<svg width="1388" height="1035" viewBox="0 0 1388 1035" fill="none" xmlns="http://www.w3.org/2000/svg">
<mask id="path-1-inside-1_224_258" fill="white">
<path d="M1388 908.863H0V909.557H1388V908.863Z"/>
</mask>
<path d="M1388 908.863H0V909.557H1388V908.863Z" fill="#EBEBEB"/>
<path d="M0 908.863V907.863H-1V908.863H0ZM1388 908.863H1389V907.863H1388V908.863ZM1388 909.557V910.557H1389V909.557H1388ZM0 909.557H-1V910.557H0V909.557ZM0 909.863H1388V907.863H0V909.863ZM1387 908.863V909.557H1389V908.863H1387ZM1388 908.557H0V910.557H1388V908.557ZM1 909.557V908.863H-1V909.557H1Z" fill="black" mask="url(#path-1-inside-1_224_258)"/>
<mask id="path-3-inside-2_224_258" fill="white">
<path d="M1248.92 953.528H1156.98V954.222H1248.92V953.528Z"/>
</mask>
<path d="M1248.92 953.528H1156.98V954.222H1248.92V953.528Z" fill="#EBEBEB"/>
<path d="M1156.98 953.528V952.528H1155.98V953.528H1156.98ZM1248.92 953.528H1249.92V952.528H1248.92V953.528ZM1248.92 954.222V955.222H1249.92V954.222H1248.92ZM1156.98 954.222H1155.98V955.222H1156.98V954.222ZM1156.98 954.528H1248.92V952.528H1156.98V954.528ZM1247.92 953.528V954.222H1249.92V953.528H1247.92ZM1248.92 953.222H1156.98V955.222H1248.92V953.222ZM1157.98 954.222V953.528H1155.98V954.222H1157.98Z" fill="black" mask="url(#path-3-inside-2_224_258)"/>
<mask id="path-5-inside-3_224_258" fill="white">
<path d="M749.133 945.062H665.242V945.756H749.133V945.062Z"/>
</mask>
<path d="M749.133 945.062H665.242V945.756H749.133V945.062Z" fill="#EBEBEB"/>
<path d="M665.242 945.062V944.062H664.242V945.062H665.242ZM749.133 945.062H750.133V944.062H749.133V945.062ZM749.133 945.756V946.756H750.133V945.756H749.133ZM665.242 945.756H664.242V946.756H665.242V945.756ZM665.242 946.062H749.133V944.062H665.242V946.062ZM748.133 945.062V945.756H750.133V945.062H748.133ZM749.133 944.756H665.242V946.756H749.133V944.756ZM666.242 945.756V945.062H664.242V945.756H666.242Z" fill="black" mask="url(#path-5-inside-3_224_258)"/>
<mask id="path-7-inside-4_224_258" fill="white">
<path d="M1154.2 927.766H960.189V928.46H1154.2V927.766Z"/>
</mask>
<path d="M1154.2 927.766H960.189V928.46H1154.2V927.766Z" fill="#EBEBEB"/>
<path d="M960.189 927.766V926.766H959.189V927.766H960.189ZM1154.2 927.766H1155.2V926.766H1154.2V927.766ZM1154.2 928.46V929.46H1155.2V928.46H1154.2ZM960.189 928.46H959.189V929.46H960.189V928.46ZM960.189 928.766H1154.2V926.766H960.189V928.766ZM1153.2 927.766V928.46H1155.2V927.766H1153.2ZM1154.2 927.46H960.189V929.46H1154.2V927.46ZM961.189 928.46V927.766H959.189V928.46H961.189Z" fill="black" mask="url(#path-7-inside-4_224_258)"/>
<mask id="path-9-inside-5_224_258" fill="white">
<path d="M609.61 932.428H145.629V933.122H609.61V932.428Z"/>
</mask>
<path d="M609.61 932.428H145.629V933.122H609.61V932.428Z" fill="#EBEBEB"/>
<path d="M145.629 932.428V931.428H144.629V932.428H145.629ZM609.61 932.428H610.61V931.428H609.61V932.428ZM609.61 933.122V934.122H610.61V933.122H609.61ZM145.629 933.122H144.629V934.122H145.629V933.122ZM145.629 933.428H609.61V931.428H145.629V933.428ZM608.61 932.428V933.122H610.61V932.428H608.61ZM609.61 932.122H145.629V934.122H609.61V932.122ZM146.629 933.122V932.428H144.629V933.122H146.629Z" fill="black" mask="url(#path-9-inside-5_224_258)"/>
<mask id="path-11-inside-6_224_258" fill="white">
<path d="M651.887 932.428H634.314V933.122H651.887V932.428Z"/>
</mask>
<path d="M651.887 932.428H634.314V933.122H651.887V932.428Z" fill="#EBEBEB"/>
<path d="M634.314 932.428V931.428H633.314V932.428H634.314ZM651.887 932.428H652.887V931.428H651.887V932.428ZM651.887 933.122V934.122H652.887V933.122H651.887ZM634.314 933.122H633.314V934.122H634.314V933.122ZM634.314 933.428H651.887V931.428H634.314V933.428ZM650.887 932.428V933.122H652.887V932.428H650.887ZM651.887 932.122H634.314V934.122H651.887V932.122ZM635.314 933.122V932.428H633.314V933.122H635.314Z" fill="black" mask="url(#path-11-inside-6_224_258)"/>
<mask id="path-13-inside-7_224_258" fill="white">
<path d="M657.911 785.053H121.894C117.694 785.045 113.67 783.372 110.703 780.4C107.737 777.428 106.07 773.401 106.07 769.202V15.7119C106.107 11.5369 107.789 7.54486 110.752 4.60297C113.715 1.66108 117.718 0.00690791 121.894 -0.000244141H657.911C662.115 -0.000244141 666.147 1.66976 669.12 4.6424C672.092 7.61503 673.762 11.6468 673.762 15.8507V769.202C673.762 773.406 672.092 777.437 669.12 780.41C666.147 783.383 662.115 785.053 657.911 785.053ZM121.894 0.554958C117.878 0.562312 114.03 2.16244 111.194 5.00413C108.357 7.84581 106.764 11.6968 106.764 15.7119V769.202C106.764 773.217 108.357 777.068 111.194 779.909C114.03 782.751 117.878 784.351 121.894 784.359H657.911C661.929 784.351 665.78 782.752 668.621 779.911C671.462 777.07 673.061 773.219 673.068 769.202V15.7119C673.061 11.6943 671.462 7.84332 668.621 5.00243C665.78 2.16154 661.929 0.562296 657.911 0.554958H121.894Z"/>
</mask>
<path d="M657.911 785.053H121.894C117.694 785.045 113.67 783.372 110.703 780.4C107.737 777.428 106.07 773.401 106.07 769.202V15.7119C106.107 11.5369 107.789 7.54486 110.752 4.60297C113.715 1.66108 117.718 0.00690791 121.894 -0.000244141H657.911C662.115 -0.000244141 666.147 1.66976 669.12 4.6424C672.092 7.61503 673.762 11.6468 673.762 15.8507V769.202C673.762 773.406 672.092 777.437 669.12 780.41C666.147 783.383 662.115 785.053 657.911 785.053ZM121.894 0.554958C117.878 0.562312 114.03 2.16244 111.194 5.00413C108.357 7.84581 106.764 11.6968 106.764 15.7119V769.202C106.764 773.217 108.357 777.068 111.194 779.909C114.03 782.751 117.878 784.351 121.894 784.359H657.911C661.929 784.351 665.78 782.752 668.621 779.911C671.462 777.07 673.061 773.219 673.068 769.202V15.7119C673.061 11.6943 671.462 7.84332 668.621 5.00243C665.78 2.16154 661.929 0.562296 657.911 0.554958H121.894Z" fill="#EBEBEB"/>
<path d="M121.894 785.053L121.892 786.053H121.894V785.053ZM106.07 769.202H107.07H106.07ZM106.07 15.7119L105.07 15.7032V15.7119H106.07ZM121.894 -0.000244141V-1.00025L121.892 -1.00024L121.894 -0.000244141ZM657.911 -0.000244141V-1.00024V-0.000244141ZM673.762 769.202H672.762H673.762ZM121.894 0.554958V-0.445044L121.892 -0.44504L121.894 0.554958ZM106.764 15.7119H107.764L107.764 15.7119L106.764 15.7119ZM106.764 769.202H107.764H106.764ZM121.894 784.359L121.892 785.359H121.894V784.359ZM657.911 784.359V785.359H657.913L657.911 784.359ZM673.068 769.202L674.068 769.203V769.202H673.068ZM673.068 15.7119H674.068V15.7101L673.068 15.7119ZM657.911 0.554958L657.913 -0.445042H657.911V0.554958ZM657.911 784.053H121.894V786.053H657.911V784.053ZM121.895 784.053C117.961 784.046 114.19 782.478 111.411 779.694L109.995 781.107C113.149 784.266 117.428 786.045 121.892 786.053L121.895 784.053ZM111.411 779.694C108.631 776.909 107.07 773.136 107.07 769.202H105.07C105.07 773.666 106.842 777.947 109.995 781.107L111.411 779.694ZM107.07 769.202V15.7119H105.07V769.202H107.07ZM107.07 15.7207C107.105 11.809 108.681 8.06886 111.456 5.31256L110.047 3.89338C106.898 7.02087 105.109 11.2647 105.07 15.7032L107.07 15.7207ZM111.456 5.31256C114.232 2.55627 117.983 1.00646 121.895 0.999754L121.892 -1.00024C117.453 -0.992639 113.197 0.765886 110.047 3.89338L111.456 5.31256ZM121.894 0.999756H657.911V-1.00024H121.894V0.999756ZM657.911 0.999756C661.85 0.999756 665.628 2.56441 668.413 5.3495L669.827 3.93529C666.667 0.77512 662.381 -1.00024 657.911 -1.00024V0.999756ZM668.413 5.3495C671.198 8.1346 672.762 11.912 672.762 15.8507H674.762C674.762 11.3816 672.987 7.09546 669.827 3.93529L668.413 5.3495ZM672.762 15.8507V769.202H674.762V15.8507H672.762ZM672.762 769.202C672.762 773.14 671.198 776.918 668.413 779.703L669.827 781.117C672.987 777.957 674.762 773.671 674.762 769.202H672.762ZM668.413 779.703C665.628 782.488 661.85 784.053 657.911 784.053V786.053C662.381 786.053 666.667 784.277 669.827 781.117L668.413 779.703ZM121.892 -0.44504C117.612 -0.437202 113.51 1.2685 110.486 4.29767L111.902 5.71058C114.551 3.05638 118.145 1.56182 121.895 1.55496L121.892 -0.44504ZM110.486 4.29767C107.462 7.32684 105.764 11.4319 105.764 15.7119L107.764 15.7119C107.764 11.9617 109.252 8.36479 111.902 5.71058L110.486 4.29767ZM105.764 15.7119V769.202H107.764V15.7119H105.764ZM105.764 769.202C105.764 773.482 107.462 777.587 110.486 780.616L111.902 779.203C109.252 776.549 107.764 772.952 107.764 769.202H105.764ZM110.486 780.616C113.51 783.645 117.612 785.351 121.892 785.359L121.895 783.359C118.145 783.352 114.551 781.857 111.902 779.203L110.486 780.616ZM121.894 785.359H657.911V783.359H121.894V785.359ZM657.913 785.359C662.195 785.351 666.3 783.646 669.328 780.618L667.914 779.204C665.26 781.858 661.663 783.352 657.91 783.359L657.913 785.359ZM669.328 780.618C672.356 777.59 674.061 773.486 674.068 769.203L672.068 769.2C672.062 772.953 670.568 776.55 667.914 779.204L669.328 780.618ZM674.068 769.202V15.7119H672.068V769.202H674.068ZM674.068 15.7101C674.061 11.4279 672.356 7.3233 669.328 4.29532L667.914 5.70954C670.568 8.36334 672.062 11.9607 672.068 15.7137L674.068 15.7101ZM669.328 4.29532C666.3 1.26734 662.195 -0.437219 657.913 -0.44504L657.91 1.55496C661.663 1.56181 665.26 3.05573 667.914 5.70954L669.328 4.29532ZM657.911 -0.445042H121.894V1.55496H657.911V-0.445042Z" fill="black" mask="url(#path-13-inside-7_224_258)"/>
<path d="M722.343 0.054958H1258.39C1262.54 0.0625386 1266.52 1.71444 1269.45 4.64888C1269.46 4.65301 1269.46 4.65713 1269.46 4.66127L722.343 0.054958ZM722.343 0.054958L722.343 -0.000244141H1258.39C1262.56 0.0142035 1266.56 1.6716 1269.51 4.61271L722.343 0.054958ZM722.344 0.499756H1258.39C1262.42 0.513951 1266.28 2.11412 1269.15 4.95404C1269.15 4.95842 1269.16 4.96281 1269.16 4.9672C1272.02 7.81445 1273.65 11.6749 1273.68 15.7119L722.344 0.499756Z" fill="#EBEBEB" stroke="black"/>
<path d="M1231.66 626.987V895.62H1167.2V626.987H1231.66Z" fill="#F0F0F0" stroke="black"/>
<path d="M1219.08 896.649V908.363H761.235V896.649H1219.08Z" fill="#F0F0F0" stroke="black"/>
<path d="M748.66 895.646V627.013H1166.2V895.646H748.66Z" fill="#F5F5F5" stroke="black"/>
<path d="M774.393 793.74V728.893H1140.44V793.74H774.393Z" fill="#F0F0F0" stroke="black"/>
<path d="M774.393 871.608V806.761H1140.44V871.608H774.393Z" fill="#F0F0F0" stroke="black"/>
<path d="M861.615 727.118H861.615H1053.16C1054.22 727.118 1055.24 727.539 1056 728.288C1056.75 729.037 1057.18 730.053 1057.18 731.115C1057.18 732.18 1056.75 733.2 1056 733.953C1055.24 734.707 1054.22 735.133 1053.16 735.14H861.615C860.547 735.14 859.524 734.716 858.769 733.961C858.014 733.207 857.59 732.183 857.59 731.117C857.597 730.054 858.024 729.037 858.777 728.288C859.531 727.539 860.552 727.118 861.615 727.118Z" fill="#F5F5F5" stroke="black"/>
<path d="M774.393 715.872V651.025H1140.44V715.872H774.393Z" fill="#F0F0F0" stroke="black"/>
<path d="M861.615 649.224H861.615H1053.16C1054.22 649.224 1055.24 649.645 1056 650.394C1056.75 651.143 1057.18 652.159 1057.18 653.221C1057.18 654.286 1056.75 655.306 1056 656.059C1055.24 656.813 1054.22 657.239 1053.16 657.246H861.615C860.547 657.246 859.524 656.822 858.769 656.067C858.014 655.313 857.59 654.289 857.59 653.223C857.597 652.16 858.024 651.143 858.777 650.394C859.531 649.645 860.552 649.224 861.615 649.224Z" fill="#F5F5F5" stroke="black"/>
<path d="M861.615 804.848H861.615H1053.16C1054.22 804.848 1055.24 805.269 1056 806.019C1056.75 806.767 1057.18 807.783 1057.18 808.846C1057.18 809.911 1056.75 810.93 1056 811.683C1055.24 812.437 1054.22 812.864 1053.16 812.87H861.615C860.547 812.87 859.524 812.446 858.769 811.692C858.014 810.937 857.59 809.914 857.59 808.847C857.597 807.784 858.024 806.768 858.777 806.019C859.531 805.269 860.552 804.848 861.615 804.848Z" fill="#F5F5F5" stroke="black"/>
<path d="M1166.2 604.86V626.013H739.943V604.86H1166.2Z" fill="#F0F0F0" stroke="black"/>
<path d="M1167.2 626.017V604.864H1240.82V626.017H1167.2Z" fill="#E6E6E6" stroke="black"/>
<path d="M1100.54 548.593C1100.54 579.093 1073.71 603.863 1040.64 603.863C1007.56 603.863 980.732 579.066 980.732 548.593C980.732 530.617 989.99 508.894 1004.51 494.017H1076.88C1091.26 508.895 1100.54 530.618 1100.54 548.593Z" fill="#E6E6E6" stroke="black"/>
<path d="M1184.19 557.976C1184.19 583.285 1161.93 603.835 1134.47 603.835C1107 603.835 1084.78 583.285 1084.78 557.976C1084.78 543.081 1092.45 525.078 1104.48 512.699H1164.46C1176.48 525.079 1184.19 543.109 1184.19 557.976Z" fill="#F0F0F0" stroke="black"/>
<path d="M944.41 420.426L950.263 603.502H903.754V420.426H944.41Z" fill="#F0F0F0" stroke="black"/>
<path d="M950.246 392.969L936.017 603.501H821.344L835.572 392.969H950.246Z" fill="#E6E6E6" stroke="black"/>
<path d="M947.553 392.969L933.324 603.501H818.65L832.879 392.969H947.553Z" fill="#F0F0F0" stroke="black"/>
<path d="M928.018 419.143L928.018 419.142C928.09 418.027 927.932 416.909 927.554 415.858C927.176 414.807 926.586 413.844 925.821 413.03C925.056 412.216 924.132 411.568 923.106 411.125C922.08 410.683 920.974 410.455 919.857 410.458L919.856 410.458L856.369 410.458C854.29 410.46 852.289 411.254 850.773 412.677C849.257 414.101 848.34 416.048 848.207 418.123L928.018 419.143ZM928.018 419.143L917.997 578.455M928.018 419.143L917.997 578.455M917.997 578.455C917.997 578.456 917.997 578.457 917.997 578.457M917.997 578.455L917.997 578.457M917.997 578.457C917.857 580.53 916.938 582.473 915.423 583.895C913.909 585.318 911.911 586.114 909.833 586.122H846.32C845.204 586.121 844.1 585.891 843.076 585.447C842.051 585.003 841.129 584.355 840.364 583.541C839.6 582.728 839.01 581.767 838.63 580.717C838.251 579.667 838.09 578.551 838.158 577.437C838.158 577.437 838.158 577.437 838.158 577.436L917.997 578.457Z" fill="white" stroke="black"/>
<path d="M196.984 672.206V147.487H609.081V672.206H196.984Z" fill="#E6E6E6" stroke="black"/>
<path d="M191.877 672.206V147.487H603.974V672.206H191.877Z" fill="#FAFAFA" stroke="black"/>
<path d="M203.453 159.067L592.426 159.067V660.662H203.453L203.453 159.067Z" fill="white" stroke="black"/>
<path d="M406.309 510.492C434.775 515.112 454.105 541.934 449.484 570.4C444.864 598.865 418.042 618.196 389.576 613.575C361.111 608.954 341.78 582.133 346.401 553.667C351.022 525.201 377.843 505.871 406.309 510.492Z" fill="#FAFAFA" stroke="black"/>
<path d="M446.142 389.869C457.178 416.512 444.526 447.057 417.883 458.093C391.24 469.129 360.695 456.477 349.659 429.834C338.623 403.191 351.275 372.646 377.918 361.61C404.561 350.574 435.106 363.226 446.142 389.869Z" fill="#EBEBEB" stroke="black"/>
<path d="M406.297 206.206C434.763 210.826 454.093 237.648 449.473 266.114C444.852 294.579 418.03 313.91 389.565 309.289C361.099 304.668 341.769 277.847 346.389 249.381C351.01 220.915 377.832 201.585 406.297 206.206Z" fill="#E0E0E0" stroke="black"/>
<path d="M1134 182.079C1134 250.641 1078.42 306.221 1009.85 306.221C941.291 306.221 885.711 250.641 885.711 182.079C885.711 113.517 941.291 57.9363 1009.85 57.9363C1078.42 57.9363 1134 113.517 1134 182.079Z" fill="#E0E0E0" stroke="black"/>
<path d="M1130 182.079C1130 250.641 1074.42 306.221 1005.86 306.221C937.293 306.221 881.713 250.641 881.713 182.079C881.713 113.517 937.293 57.9363 1005.86 57.9363C1074.42 57.9363 1130 113.517 1130 182.079Z" fill="#F0F0F0" stroke="black"/>
<path d="M1114.37 182.077V182.078C1114.4 207.743 1105.33 232.589 1088.79 252.208C1072.24 271.828 1049.28 284.953 1023.98 289.256C998.679 293.559 972.671 288.762 950.569 275.716C928.467 262.669 911.701 242.216 903.242 217.985C894.784 193.754 895.182 167.31 904.364 143.344C913.546 119.378 930.92 99.4379 953.403 87.0612C975.887 74.6846 1002.03 70.6709 1027.19 75.7321C1052.35 80.7933 1074.9 94.6022 1090.85 114.71L1090.86 114.716L1090.86 114.722L1091.16 115.076C1106.24 134.153 1114.41 157.765 1114.37 182.077Z" fill="#FAFAFA" stroke="black"/>
<path d="M1014.77 186.068L1014.77 186.07L973.986 237.259L973.978 237.269L973.971 237.279C973.399 238.075 972.672 238.746 971.833 239.253C970.994 239.76 970.062 240.091 969.091 240.227C968.121 240.363 967.133 240.3 966.187 240.043C965.241 239.786 964.358 239.34 963.589 238.732C962.821 238.124 962.184 237.366 961.717 236.504C961.25 235.643 960.963 234.696 960.873 233.72C960.782 232.744 960.891 231.76 961.192 230.827C961.492 229.895 961.979 229.033 962.623 228.294L962.63 228.285L962.638 228.276L998.726 182.75L999.02 182.378L998.664 182.064L969.905 156.719L969.898 156.713L969.89 156.707C969.134 156.091 968.511 155.328 968.057 154.465C967.602 153.602 967.327 152.656 967.248 151.683C967.168 150.711 967.285 149.733 967.593 148.808C967.9 147.882 968.391 147.028 969.037 146.297C969.682 145.566 970.469 144.972 971.349 144.552C972.23 144.132 973.186 143.895 974.16 143.853C975.135 143.811 976.107 143.967 977.02 144.311C977.933 144.654 978.767 145.179 979.472 145.852L979.48 145.859L979.487 145.866L1013.74 176.069L1013.75 176.075L1013.76 176.081C1014.5 176.688 1015.12 177.437 1015.57 178.284C1016.2 179.521 1016.46 180.913 1016.32 182.293C1016.17 183.674 1015.64 184.985 1014.77 186.068Z" fill="#E0E0E0" stroke="black"/>
<path d="M1231.74 1002.8C1231.74 1003.19 1231.58 1003.62 1231.16 1004.09C1230.75 1004.57 1230.11 1005.07 1229.21 1005.58C1227.43 1006.61 1224.74 1007.64 1221.17 1008.66C1214.03 1010.69 1203.49 1012.66 1189.88 1014.54C1162.66 1018.3 1123.26 1021.68 1074.57 1024.53C977.176 1030.21 842.626 1033.73 694.002 1033.73C545.378 1033.73 410.829 1030.21 313.439 1024.53C264.743 1021.68 225.346 1018.3 198.129 1014.54C184.518 1012.66 173.971 1010.69 166.836 1008.66C163.264 1007.64 160.577 1006.61 158.792 1005.58C157.899 1005.07 157.256 1004.57 156.842 1004.09C156.43 1003.62 156.264 1003.19 156.264 1002.8C156.264 1002.42 156.43 1001.99 156.842 1001.52C157.256 1001.04 157.899 1000.54 158.792 1000.03C160.577 998.999 163.264 997.972 166.836 996.953C173.971 994.917 184.518 992.947 198.129 991.068C225.346 987.312 264.743 983.927 313.439 981.084C410.829 975.398 545.378 971.881 694.002 971.881C842.626 971.881 977.176 975.398 1074.57 981.084C1123.26 983.927 1162.66 987.312 1189.88 991.068C1203.49 992.947 1214.03 994.917 1221.17 996.953C1224.74 997.972 1227.43 998.999 1229.21 1000.03C1230.11 1000.54 1230.75 1001.04 1231.16 1001.52C1231.58 1001.99 1231.74 1002.42 1231.74 1002.8Z" fill="#F5F5F5" stroke="black"/>
<path d="M965.618 989.67L984.477 1012.6H403.523L422.383 989.67H965.618Z" fill="#407BFF" stroke="black"/>
<path opacity="0.6" d="M965.618 989.67L984.477 1012.6H403.523L422.383 989.67H965.618Z" fill="#F6CB97" stroke="black"/>
<mask id="path-46-inside-8_224_258" fill="white">
<path d="M525.829 782.384C598.31 780.552 645.336 835.766 645.336 835.766C638.229 858.391 633.677 875.324 633.677 875.324C594.035 867.829 548.953 864.803 511.838 855.143C478.332 846.426 474.834 801.15 478.526 782.134C482.218 763.118 501.234 758.677 519.944 752.486C541.291 745.408 581.987 744.852 611.163 744.741C641.921 744.741 682.34 747.517 703.271 752.237C703.271 752.237 747.687 750.266 780.694 750.821C799.959 747.573 788.355 778.969 757.764 805.73C742.655 819.111 724.769 828.976 705.391 834.616C686.013 840.256 665.626 841.531 645.697 838.348H645.447"/>
</mask>
<path d="M525.829 782.384C598.31 780.552 645.336 835.766 645.336 835.766C638.229 858.391 633.677 875.324 633.677 875.324C594.035 867.829 548.953 864.803 511.838 855.143C478.332 846.426 474.834 801.15 478.526 782.134C482.218 763.118 501.234 758.677 519.944 752.486C541.291 745.408 581.987 744.852 611.163 744.741C641.921 744.741 682.34 747.517 703.271 752.237C703.271 752.237 747.687 750.266 780.694 750.821C799.959 747.573 788.355 778.969 757.764 805.73C742.655 819.111 724.769 828.976 705.391 834.616C686.013 840.256 665.626 841.531 645.697 838.348H645.447" fill="#263238"/>
<path d="M645.336 835.766L646.29 836.066L646.455 835.539L646.097 835.118L645.336 835.766ZM633.677 875.324L633.491 876.307L634.402 876.479L634.642 875.584L633.677 875.324ZM511.838 855.143L512.09 854.175L512.09 854.175L511.838 855.143ZM519.944 752.486L520.258 753.436L520.259 753.436L519.944 752.486ZM611.163 744.741V743.741L611.159 743.741L611.163 744.741ZM703.271 752.237L703.051 753.212L703.182 753.242L703.315 753.236L703.271 752.237ZM780.694 750.821L780.677 751.821L780.769 751.822L780.86 751.807L780.694 750.821ZM757.764 805.73L757.105 804.977L757.101 804.981L757.764 805.73ZM645.697 838.348L645.854 837.361L645.776 837.348H645.697V838.348ZM525.854 783.384C561.83 782.474 591.509 795.722 612.217 809.226C622.568 815.976 630.667 822.783 636.175 827.9C638.929 830.458 641.034 832.593 642.448 834.085C643.155 834.831 643.689 835.417 644.045 835.814C644.223 836.013 644.357 836.165 644.445 836.266C644.49 836.316 644.523 836.354 644.544 836.379C644.555 836.392 644.563 836.401 644.568 836.407C644.57 836.41 644.572 836.412 644.573 836.413C644.574 836.414 644.574 836.414 644.574 836.415C644.575 836.415 644.575 836.415 645.336 835.766C646.097 835.118 646.097 835.118 646.096 835.117C646.096 835.116 646.095 835.115 646.094 835.114C646.092 835.112 646.09 835.109 646.087 835.106C646.08 835.098 646.071 835.087 646.059 835.073C646.035 835.045 645.999 835.004 645.952 834.95C645.858 834.843 645.719 834.685 645.535 834.479C645.167 834.069 644.62 833.47 643.899 832.71C642.459 831.189 640.324 829.025 637.536 826.435C631.962 821.257 623.774 814.375 613.309 807.55C592.384 793.905 562.309 780.461 525.804 781.384L525.854 783.384ZM644.382 835.467C640.826 846.788 637.908 856.686 635.88 863.754C634.866 867.288 634.074 870.114 633.535 872.058C633.266 873.03 633.06 873.781 632.921 874.289C632.852 874.544 632.799 874.737 632.764 874.867C632.747 874.932 632.733 874.982 632.724 875.015C632.72 875.031 632.717 875.044 632.714 875.052C632.713 875.056 632.712 875.059 632.712 875.061C632.712 875.063 632.711 875.063 632.711 875.064C632.711 875.064 632.711 875.064 632.711 875.065C632.711 875.065 632.711 875.065 633.677 875.324C634.642 875.584 634.642 875.584 634.642 875.584C634.642 875.584 634.642 875.584 634.643 875.583C634.643 875.583 634.643 875.582 634.643 875.581C634.644 875.579 634.644 875.576 634.646 875.572C634.648 875.564 634.651 875.552 634.655 875.536C634.664 875.503 634.677 875.455 634.695 875.39C634.73 875.261 634.782 875.069 634.851 874.816C634.989 874.31 635.194 873.561 635.463 872.592C636 870.654 636.79 867.833 637.802 864.305C639.827 857.25 642.74 847.369 646.29 836.066L644.382 835.467ZM633.862 874.342C614.01 870.588 592.791 867.953 571.948 865.055C551.084 862.154 530.586 858.989 512.09 854.175L511.586 856.111C530.205 860.957 550.806 864.135 571.672 867.036C592.559 869.94 613.702 872.565 633.491 876.307L633.862 874.342ZM512.09 854.175C495.801 849.938 486.733 836.812 482.187 822.203C477.639 807.586 477.691 791.681 479.508 782.325L477.544 781.943C475.669 791.603 475.624 807.844 480.278 822.798C484.934 837.761 494.369 851.631 511.586 856.111L512.09 854.175ZM479.508 782.325C481.282 773.184 486.716 767.534 494.094 763.372C501.538 759.173 510.83 756.555 520.258 753.436L519.63 751.537C510.348 754.608 500.776 757.306 493.112 761.63C485.382 765.99 479.462 772.069 477.544 781.943L479.508 782.325ZM520.259 753.436C530.801 749.94 546.2 748.036 562.681 746.999C579.138 745.963 596.58 745.797 611.167 745.741L611.159 743.741C596.571 743.797 579.077 743.963 562.555 745.003C546.057 746.041 530.434 747.954 519.629 751.537L520.259 753.436ZM611.163 745.741C641.899 745.741 682.229 748.518 703.051 753.212L703.491 751.261C682.45 746.517 641.944 743.741 611.163 743.741V745.741ZM703.271 752.237C703.315 753.236 703.315 753.236 703.316 753.236C703.316 753.236 703.317 753.236 703.317 753.235C703.319 753.235 703.321 753.235 703.323 753.235C703.329 753.235 703.337 753.235 703.347 753.234C703.369 753.233 703.401 753.232 703.443 753.23C703.528 753.226 703.654 753.221 703.821 753.214C704.154 753.199 704.646 753.178 705.285 753.152C706.563 753.099 708.426 753.025 710.764 752.937C715.441 752.761 722.022 752.532 729.633 752.32C744.858 751.897 764.196 751.543 780.677 751.821L780.71 749.821C764.185 749.543 744.812 749.897 729.577 750.321C721.958 750.533 715.371 750.762 710.689 750.938C708.348 751.026 706.483 751.101 705.203 751.154C704.563 751.18 704.069 751.201 703.735 751.215C703.568 751.223 703.441 751.228 703.356 751.232C703.313 751.234 703.281 751.235 703.259 751.236C703.248 751.237 703.24 751.237 703.235 751.237C703.232 751.237 703.23 751.237 703.229 751.237C703.228 751.237 703.227 751.238 703.227 751.238C703.227 751.238 703.227 751.238 703.271 752.237ZM780.86 751.807C783.16 751.419 784.881 751.57 786.116 752.076C787.318 752.567 788.133 753.423 788.61 754.633C789.605 757.16 789.137 761.301 786.997 766.651C782.756 777.25 772.323 791.666 757.105 804.977L758.422 806.483C773.796 793.034 784.461 778.371 788.854 767.394C791.029 761.956 791.763 757.183 790.471 753.901C789.804 752.206 788.604 750.933 786.873 750.224C785.175 749.53 783.044 749.41 780.527 749.835L780.86 751.807ZM757.101 804.981C742.103 818.264 724.347 828.057 705.111 833.656L705.67 835.576C725.19 829.895 743.208 819.957 758.427 806.479L757.101 804.981ZM705.111 833.656C685.876 839.255 665.638 840.52 645.854 837.361L645.539 839.336C665.614 842.541 686.151 841.257 705.67 835.576L705.111 833.656ZM645.697 837.348H645.447V839.348H645.697V837.348Z" fill="black" mask="url(#path-46-inside-8_224_258)"/>
<mask id="path-48-inside-9_224_258" fill="white">
<path d="M874.44 782.384C801.959 780.552 737.639 835.766 737.639 835.766C744.745 858.391 749.298 875.324 749.298 875.324C788.939 867.829 851.316 864.803 888.431 855.143C921.965 846.426 925.435 801.15 921.743 782.134C918.051 763.118 899.035 758.677 880.325 752.486C858.978 745.408 818.282 744.852 789.106 744.741C758.348 744.741 717.929 747.517 696.998 752.237C696.998 752.237 652.582 750.266 619.603 750.821C600.31 747.573 611.914 778.969 642.505 805.73C657.598 819.091 675.461 828.945 694.813 834.585C714.165 840.224 734.526 841.509 754.434 838.348H754.683"/>
</mask>
<path d="M874.44 782.384C801.959 780.552 737.639 835.766 737.639 835.766C744.745 858.391 749.298 875.324 749.298 875.324C788.939 867.829 851.316 864.803 888.431 855.143C921.965 846.426 925.435 801.15 921.743 782.134C918.051 763.118 899.035 758.677 880.325 752.486C858.978 745.408 818.282 744.852 789.106 744.741C758.348 744.741 717.929 747.517 696.998 752.237C696.998 752.237 652.582 750.266 619.603 750.821C600.31 747.573 611.914 778.969 642.505 805.73C657.598 819.091 675.461 828.945 694.813 834.585C714.165 840.224 734.526 841.509 754.434 838.348H754.683" fill="#263238"/>
<path d="M737.639 835.766L736.987 835.008L736.487 835.437L736.685 836.066L737.639 835.766ZM749.298 875.324L748.332 875.584L748.573 876.479L749.484 876.307L749.298 875.324ZM888.431 855.143L888.18 854.175L888.179 854.175L888.431 855.143ZM880.325 752.486L880.01 753.436L880.011 753.436L880.325 752.486ZM789.106 744.741L789.11 743.741H789.106V744.741ZM696.998 752.237L696.954 753.236L697.088 753.242L697.218 753.212L696.998 752.237ZM619.603 750.821L619.437 751.807L619.528 751.822L619.62 751.821L619.603 750.821ZM642.505 805.73L643.168 804.981L643.164 804.977L642.505 805.73ZM754.434 838.348V837.348H754.355L754.277 837.36L754.434 838.348ZM874.465 781.384C837.977 780.462 803.597 793.894 778.384 807.508C765.769 814.32 755.427 821.189 748.238 826.356C744.643 828.94 741.834 831.099 739.923 832.614C738.967 833.371 738.236 833.968 737.742 834.376C737.495 834.58 737.307 834.737 737.181 834.843C737.118 834.897 737.07 834.937 737.038 834.965C737.022 834.978 737.009 834.989 737.001 834.996C736.997 835 736.994 835.002 736.991 835.004C736.99 835.005 736.989 835.006 736.989 835.007C736.988 835.007 736.987 835.008 737.639 835.766C738.29 836.525 738.29 836.525 738.29 836.525C738.291 836.525 738.291 836.524 738.292 836.523C738.294 836.522 738.297 836.52 738.3 836.517C738.307 836.51 738.319 836.501 738.334 836.488C738.364 836.463 738.409 836.424 738.47 836.373C738.591 836.27 738.774 836.117 739.016 835.918C739.5 835.518 740.221 834.93 741.165 834.181C743.055 832.684 745.838 830.544 749.405 827.98C756.54 822.851 766.809 816.031 779.334 809.268C804.401 795.733 838.421 782.474 874.415 783.384L874.465 781.384ZM736.685 836.066C740.235 847.369 743.147 857.25 745.172 864.305C746.185 867.833 746.975 870.654 747.512 872.592C747.781 873.561 747.986 874.31 748.124 874.816C748.193 875.069 748.245 875.261 748.28 875.39C748.297 875.455 748.311 875.503 748.319 875.536C748.324 875.552 748.327 875.564 748.329 875.572C748.33 875.576 748.331 875.579 748.332 875.581C748.332 875.582 748.332 875.583 748.332 875.583C748.332 875.584 748.332 875.584 748.332 875.584C748.332 875.584 748.332 875.584 749.298 875.324C750.264 875.065 750.264 875.065 750.264 875.065C750.264 875.064 750.264 875.064 750.264 875.064C750.263 875.063 750.263 875.063 750.263 875.061C750.262 875.059 750.261 875.056 750.26 875.052C750.258 875.044 750.255 875.031 750.25 875.015C750.241 874.982 750.228 874.932 750.21 874.867C750.175 874.737 750.123 874.544 750.053 874.289C749.915 873.781 749.709 873.03 749.439 872.058C748.901 870.114 748.109 867.288 747.095 863.754C745.066 856.686 742.149 846.788 738.593 835.467L736.685 836.066ZM749.484 876.307C769.259 872.568 794.712 869.943 819.926 867.039C845.103 864.139 870.046 860.961 888.683 856.111L888.179 854.175C869.701 858.985 844.898 862.15 819.698 865.052C794.535 867.95 768.979 870.586 749.112 874.342L749.484 876.307ZM888.683 856.111C905.914 851.632 915.349 837.761 920.002 822.797C924.652 807.844 924.6 791.602 922.725 781.943L920.762 782.325C922.578 791.681 922.638 807.586 918.092 822.204C913.55 836.811 904.482 849.937 888.18 854.175L888.683 856.111ZM922.725 781.943C920.808 772.069 914.887 765.99 907.157 761.63C899.493 757.306 889.921 754.608 880.639 751.537L880.011 753.436C889.439 756.555 898.731 759.173 906.175 763.372C913.553 767.534 918.987 773.184 920.762 782.325L922.725 781.943ZM880.64 751.537C869.835 747.954 854.212 746.041 837.714 745.003C821.192 743.963 803.699 743.797 789.11 743.741L789.102 745.741C803.689 745.797 821.131 745.963 837.588 746.999C854.069 748.036 869.468 749.94 880.01 753.436L880.64 751.537ZM789.106 743.741C758.326 743.741 717.819 746.517 696.778 751.261L697.218 753.212C718.04 748.518 758.37 745.741 789.106 745.741V743.741ZM696.998 752.237C697.043 751.238 697.042 751.238 697.042 751.238C697.042 751.238 697.041 751.237 697.04 751.237C697.039 751.237 697.037 751.237 697.034 751.237C697.029 751.237 697.021 751.237 697.01 751.236C696.988 751.235 696.956 751.234 696.913 751.232C696.828 751.228 696.701 751.223 696.534 751.215C696.2 751.201 695.707 751.18 695.067 751.154C693.787 751.101 691.921 751.026 689.58 750.938C684.899 750.762 678.313 750.533 670.696 750.321C655.465 749.897 636.098 749.543 619.586 749.821L619.62 751.821C636.087 751.543 655.418 751.897 670.64 752.32C678.249 752.532 684.829 752.761 689.505 752.937C691.844 753.025 693.706 753.099 694.984 753.152C695.623 753.178 696.116 753.199 696.448 753.214C696.615 753.221 696.741 753.226 696.826 753.23C696.869 753.232 696.901 753.233 696.922 753.234C696.933 753.235 696.941 753.235 696.946 753.235C696.949 753.235 696.951 753.235 696.952 753.235C696.953 753.236 696.953 753.236 696.953 753.236C696.954 753.236 696.954 753.236 696.998 752.237ZM619.769 749.835C617.249 749.41 615.116 749.53 613.415 750.224C611.682 750.932 610.48 752.205 609.81 753.9C608.514 757.182 609.245 761.955 611.419 767.393C615.808 778.371 626.473 793.034 641.847 806.483L643.164 804.977C627.946 791.666 617.513 777.25 613.276 766.651C611.137 761.301 610.673 757.161 611.671 754.634C612.149 753.424 612.966 752.568 614.171 752.076C615.41 751.57 617.134 751.419 619.437 751.807L619.769 749.835ZM641.842 806.479C657.046 819.938 675.04 829.864 694.534 835.545L695.093 833.624C675.883 828.026 658.15 818.244 643.168 804.981L641.842 806.479ZM694.534 835.545C714.027 841.225 734.537 842.52 754.59 839.336L754.277 837.36C734.515 840.499 714.304 839.223 695.093 833.624L694.534 835.545ZM754.434 839.348H754.683V837.348H754.434V839.348Z" fill="black" mask="url(#path-48-inside-9_224_258)"/>
<path d="M625.345 649.423L625.345 649.424C621.876 660.027 618.351 670.6 614.688 681.145C614.103 682.831 613.52 684.514 612.938 686.195C609.876 695.043 606.826 703.856 603.423 712.806L603.422 712.808L602.925 714.132L602.263 715.732C602.263 715.732 602.263 715.733 602.263 715.733C601.827 716.768 601.336 717.75 600.837 718.749C599.84 720.586 598.74 722.365 597.541 724.076C595.343 727.15 592.846 729.998 590.085 732.577C585.222 737.086 579.901 741.074 574.21 744.477C563.867 750.587 552.964 755.695 541.651 759.732L541.649 759.733C520.176 767.474 498.001 773.105 475.437 776.545L471.398 759.441C481.373 755.875 491.642 752.09 501.536 747.978C511.554 743.816 521.508 739.646 530.992 734.807C540.254 730.353 549.126 725.13 557.514 719.193L557.515 719.193C561.456 716.398 565.004 713.243 567.652 710.258C568.976 708.766 570.081 707.309 570.899 705.954C571.705 704.619 572.248 703.355 572.427 702.238L590.962 638.617C597.188 617.485 603.578 596.355 610.241 575.253L645.05 586.063C638.819 607.292 632.251 628.413 625.345 649.423Z" fill="#CE7A63" stroke="black"/>
<path d="M461.319 783.511C461.027 783.51 460.795 783.506 460.629 783.503L445.089 752.155L477.803 760.461L490.214 772.28C486.485 778.254 479.188 781.084 472.652 782.403C469.339 783.072 466.256 783.345 464.001 783.45C462.874 783.503 461.955 783.514 461.319 783.511Z" fill="#CE7A63" stroke="black"/>
<path d="M717.72 354.701L717.758 354.729L717.799 354.748L717.799 354.748L717.8 354.748L717.8 354.749L717.807 354.752L717.839 354.768C717.869 354.783 717.916 354.807 717.978 354.841C718.101 354.907 718.287 355.012 718.526 355.159C719.003 355.453 719.695 355.917 720.535 356.591C722.214 357.939 724.487 360.126 726.83 363.47C731.514 370.154 736.492 381.485 737.529 400.017C738.565 418.546 733.323 451.328 723.703 481.748C718.895 496.952 713 511.542 706.265 523.449C699.523 535.37 691.971 544.54 683.878 548.983C667.596 557.921 646.527 557.822 629.756 550.933C612.986 544.045 600.644 530.438 601.56 512.443C602.02 503.389 604.509 497.031 607.828 492.203C611.154 487.366 615.331 484.04 619.231 481.064C619.499 480.86 619.766 480.656 620.032 480.454C623.601 477.741 626.911 475.224 628.872 472.017C631.015 468.511 631.522 464.239 629.29 458.114C624.959 446.231 626.726 433.5 631.261 422.869C635.803 412.224 643.079 403.779 649.645 400.435C653.101 398.675 656.106 395.555 658.79 391.707C661.477 387.854 663.867 383.235 666.081 378.431C667.654 375.016 669.145 371.492 670.589 368.077C671.176 366.691 671.754 365.323 672.328 363.987C674.32 359.348 676.252 355.098 678.245 351.778C682.122 345.321 688.874 343.821 696.291 345.073C703.715 346.327 711.68 350.33 717.72 354.701Z" fill="#263238" stroke="black"/>
<path d="M753.183 340.045L753.183 340.045C762.726 344.104 769.091 348.225 773.398 352.679C777.696 357.123 779.967 361.923 781.28 367.389C782.543 372.642 782.919 378.496 783.353 385.254C783.372 385.552 783.391 385.852 783.411 386.153C783.87 393.281 784.437 401.369 786.199 410.688C789.216 426.644 798.793 437.04 808.536 447.617C810.238 449.464 811.944 451.317 813.622 453.205C824.916 465.92 835.042 480.38 834.077 506.042C833.254 527.978 827.786 543.352 819.764 553.73C811.746 564.103 801.144 569.528 789.962 571.509C778.772 573.493 767 572.026 756.682 568.605C746.359 565.182 737.538 559.818 732.232 554.053C726.975 548.341 724.438 538.743 723.647 527.436C722.858 516.153 723.814 503.274 725.444 491.103C727.074 478.935 729.376 467.494 731.271 459.094C732.218 454.894 733.063 451.456 733.672 449.067C733.976 447.873 734.221 446.942 734.389 446.31C734.474 445.993 734.539 445.752 734.583 445.59L734.633 445.406L734.646 445.36L734.649 445.349L734.65 445.346C734.65 445.345 734.65 445.345 734.168 445.211L734.65 445.345L734.692 445.197L734.642 445.051L703.298 352.764C703.317 352.737 703.337 352.708 703.36 352.676C703.495 352.487 703.698 352.208 703.969 351.857C704.512 351.156 705.326 350.166 706.406 349.019C708.565 346.725 711.782 343.812 716.01 341.331C724.448 336.38 736.94 333.133 753.183 340.045Z" fill="#263238" stroke="black"/>
<path d="M431.949 790.199L417.382 764.431L443.871 752.474L459.557 784.061L431.949 790.199Z" fill="#CE7A63" stroke="black"/>
<path d="M637.767 626.641C637.71 626.733 637.657 626.817 637.611 626.891L597.664 599.605C597.682 599.506 597.703 599.385 597.728 599.241C597.807 598.797 597.924 598.145 598.078 597.313C598.386 595.649 598.843 593.268 599.438 590.397C600.627 584.656 602.365 576.965 604.563 569.159C606.761 561.348 609.414 553.442 612.428 547.262C613.935 544.171 615.524 541.53 617.179 539.553C618.839 537.569 620.527 536.297 622.225 535.863C632.969 533.135 640.701 532.603 647.22 534.804C653.73 537.002 659.121 541.958 665.107 550.432C666.415 552.343 667.013 554.958 667.013 558.129C667.013 561.297 666.416 564.974 665.381 568.962C663.311 576.937 659.51 586.078 655.351 594.735C651.195 603.387 646.69 611.537 643.224 617.524C641.491 620.518 640.019 622.97 638.979 624.673C638.46 625.525 638.048 626.189 637.767 626.641Z" fill="#F6CB97" stroke="black"/>
<path opacity="0.2" d="M616.289 582.426C617.56 572.345 619.173 562.888 621.072 558.029L651.897 565.18L654.874 595.55C649.608 606.203 643.818 616.588 637.525 626.668L613.544 610.465C614.075 603.371 615.003 592.619 616.289 582.426Z" fill="black" stroke="black"/>
<path d="M809.85 534.724C781.753 655.43 781.751 692.074 784.171 750.893H639.738C622.779 646.133 618.521 592.264 618.5 564.596C618.49 550.74 619.542 543.484 620.581 539.708C621.099 537.822 621.609 536.826 621.963 536.315C622.139 536.061 622.273 535.931 622.348 535.87C622.363 535.857 622.376 535.847 622.387 535.84L622.405 535.836L622.679 535.781C622.921 535.732 623.28 535.66 623.746 535.568C624.68 535.383 626.045 535.116 627.772 534.788C631.227 534.131 636.128 533.229 641.916 532.246C653.493 530.279 668.608 527.991 682.775 526.702L682.775 526.702C704.305 524.735 724.232 525.51 748.688 526.703C769.242 527.899 789.683 530.58 809.85 534.724Z" fill="#F2B66D" stroke="black"/>
<path opacity="0.2" d="M794.362 606.885C790.617 626.672 788.054 643.331 786.403 658.301C784.561 650.039 781.861 637.117 779.719 624.562C778.511 617.479 777.481 610.518 776.884 604.58C776.341 599.188 776.16 594.683 776.508 591.699L794.362 606.885Z" fill="black" stroke="black"/>
<path d="M702.111 486.672L741.32 453.21C739.328 463.745 737.429 478.128 737.712 491.715C737.86 498.815 738.604 505.714 740.252 511.739C741.861 517.625 744.341 522.711 748.002 526.329C747.998 526.339 747.993 526.349 747.988 526.36C747.88 526.588 747.715 526.924 747.492 527.354C747.047 528.213 746.368 529.443 745.438 530.921C743.577 533.879 740.716 537.823 736.716 541.767C728.718 549.651 716.173 557.53 697.942 557.53C688.803 557.53 683.4 555.551 680.374 552.695C677.364 549.855 676.61 546.056 676.985 542.171C677.36 538.279 678.865 534.364 680.291 531.405C681.002 529.929 681.69 528.699 682.199 527.839C682.453 527.409 682.663 527.071 682.809 526.842C682.855 526.77 682.895 526.708 682.927 526.658C694.771 523.832 700.651 517.945 702.992 510.608C705.299 503.379 704.137 494.839 702.111 486.672Z" fill="#CE7A63" stroke="black"/>
<path d="M682.636 526.71L682.636 526.71C704.195 524.742 724.122 525.518 748.58 526.711C757.866 527.17 767.102 528.05 775.495 529.018C773.396 533.717 765.931 548.827 751.597 563.063C736.565 577.991 713.992 591.947 682.119 591.947C666.903 591.947 657.134 588.768 651.098 583.904C645.078 579.053 642.7 572.468 642.391 565.481C642.081 558.481 643.85 551.104 646.102 544.75C648.296 538.56 650.936 533.372 652.513 530.499C661.94 529.042 672.521 527.617 682.636 526.71Z" fill="#CE7A63" stroke="black"/>
<path opacity="0.2" d="M725.54 477.4L725.538 477.41L725.537 477.42C725.083 481.971 721.845 486.715 717.529 490.509C713.388 494.149 708.347 496.832 704.054 497.599C703.704 493.902 703.064 490.238 702.141 486.641L725.248 466.93C725.931 470.377 726.03 473.916 725.54 477.4Z" fill="black" stroke="black"/>
<path d="M769.573 411.66L769.572 411.666C769.312 413.028 769.059 414.359 768.812 415.66C765.885 431.054 763.745 442.31 760.19 451.534C756.348 461.5 750.853 469.09 740.884 476.908L740.884 476.908C710.949 500.405 670.05 484.662 666.239 448.905C664.511 432.696 666.523 411.741 673.488 393.663C680.455 375.579 692.335 360.469 710.284 355.752L710.286 355.751C718.172 353.656 726.464 353.608 734.374 355.612C742.284 357.616 749.552 361.607 755.489 367.206C761.426 372.804 765.836 379.826 768.301 387.605C770.765 395.384 771.203 403.664 769.573 411.66Z" fill="#CE7A63" stroke="black"/>
<path d="M726.439 379.287C715.169 374.898 707.566 369.643 704.318 364.696C702.703 362.235 702.195 359.899 702.775 357.79C703.356 355.675 705.064 353.675 708.124 351.958C714.593 348.392 724.521 348.015 735.099 349.814C745.655 351.609 756.752 355.553 765.486 360.506C769.746 362.922 772.558 366.915 774.365 371.893C776.175 376.877 776.966 382.819 777.197 389.074C777.429 395.326 777.101 401.862 776.687 408.026C776.58 409.628 776.466 411.206 776.356 412.747C776.041 417.126 775.748 421.211 775.67 424.713C775.62 427.001 775.078 428.696 774.218 429.902C773.362 431.103 772.163 431.859 770.72 432.225C767.805 432.966 763.9 432.111 760.04 430.063C756.195 428.023 752.478 424.841 749.955 421.058C747.432 417.277 746.123 412.929 747.013 408.528C747.935 403.965 748.552 400.397 748.591 397.486C748.631 394.56 748.087 392.256 746.655 390.25C745.235 388.261 742.978 386.619 739.705 384.933C736.431 383.245 732.085 381.485 726.439 379.287Z" fill="#263238" stroke="black"/>
<path d="M691.602 356.624C697.554 354.264 703.794 352.712 710.155 352.01L705.652 359.909C702.813 360.876 699.169 363.268 695.358 366.134C692.005 368.655 688.476 371.58 685.189 374.304C684.643 374.757 684.103 375.204 683.572 375.643C679.83 378.737 676.536 381.399 674.299 382.73C673.742 383.062 673.268 383.3 672.881 383.443C672.479 383.59 672.234 383.611 672.104 383.585C672.05 383.574 672.028 383.557 672.016 383.546C672.002 383.533 671.976 383.501 671.952 383.421C671.901 383.245 671.892 382.92 672.003 382.382C673.854 373.403 678.518 361.149 691.581 356.632L691.591 356.628L691.602 356.624Z" fill="#263238" stroke="black"/>
<path d="M776.939 430.289C778.275 433.369 778.121 437.269 776.229 440.84C773.021 446.745 767.683 451.206 761.302 453.315C757.156 454.647 754.147 453.508 752.421 451.169C750.665 448.788 750.156 445.053 751.305 441.077C752.354 437.467 754.609 433.122 757.662 429.786C760.721 426.444 764.507 424.189 768.63 424.557C772.793 424.93 775.611 427.224 776.939 430.289Z" fill="#CE7A63" stroke="black"/>
<path d="M638.09 871.357L638.09 871.357L638.091 871.352L651.377 833.438C651.384 833.436 651.395 833.434 651.409 833.432C651.52 833.414 651.715 833.426 652.01 833.496C652.588 833.633 653.359 833.948 654.195 834.332C654.742 834.583 655.296 834.855 655.826 835.114C656.105 835.25 656.376 835.384 656.638 835.509C657.012 835.689 657.364 835.853 657.67 835.981C657.967 836.106 658.252 836.211 658.482 836.256L658.563 836.272L658.644 836.261L658.578 835.765C658.644 836.261 658.644 836.261 658.644 836.261L658.645 836.261L658.648 836.261L658.659 836.259L658.703 836.253L658.878 836.231C659.032 836.211 659.259 836.183 659.551 836.147C660.135 836.076 660.979 835.977 662.019 835.865C664.098 835.642 666.956 835.369 670.072 835.168C673.189 834.967 676.557 834.84 679.659 834.907C682.77 834.974 685.578 835.237 687.591 835.803C691.639 836.94 693.454 838.766 694.142 840.889C694.849 843.068 694.419 845.687 693.656 848.516L693.656 848.517C692.119 854.251 690.173 857.931 688.141 861.773C687.865 862.296 687.586 862.822 687.307 863.357C684.972 867.832 682.613 872.859 680.769 881.633C680.716 881.885 680.663 882.137 680.61 882.388C678.431 892.715 676.442 902.144 665.218 911.895C662.472 914.276 659.765 916.017 657.325 917.109C654.877 918.204 652.736 918.63 651.108 918.434C649.509 918.243 648.424 917.463 647.943 916.106C647.444 914.701 647.557 912.581 648.637 909.67C651.275 902.616 652.95 897.567 653.868 893.8C654.785 890.036 654.961 887.504 654.557 885.503C654.151 883.486 653.168 882.067 651.913 880.527C651.657 880.212 651.389 879.891 651.11 879.559C650.026 878.263 648.789 876.784 647.48 874.722L647.475 874.715L647.47 874.707C647.244 874.379 646.878 874.137 646.49 873.949C646.093 873.756 645.615 873.592 645.103 873.447C644.255 873.206 643.259 873.001 642.296 872.803C642.099 872.763 641.904 872.723 641.712 872.683C640.554 872.441 639.514 872.203 638.809 871.912C638.451 871.765 638.24 871.627 638.138 871.515C638.092 871.465 638.082 871.435 638.08 871.425C638.078 871.418 638.074 871.4 638.09 871.357ZM651.36 833.443C651.359 833.444 651.358 833.444 651.358 833.444C651.358 833.444 651.359 833.444 651.36 833.443Z" fill="#CE7A63" stroke="black"/>
<path d="M721.218 836.256L721.137 836.272L721.056 836.261L721.122 835.765C721.056 836.261 721.056 836.261 721.056 836.261L721.055 836.261L721.052 836.261L721.041 836.259L720.997 836.253L720.822 836.231C720.668 836.211 720.441 836.183 720.149 836.147C719.565 836.076 718.721 835.977 717.681 835.865C715.602 835.642 712.744 835.369 709.628 835.168C706.511 834.967 703.143 834.84 700.041 834.907C696.93 834.974 694.122 835.237 692.109 835.803C688.061 836.94 686.246 838.766 685.558 840.889C684.851 843.068 685.281 845.687 686.044 848.516L686.044 848.517C687.581 854.251 689.527 857.931 691.559 861.772C691.835 862.296 692.114 862.822 692.393 863.357C694.728 867.832 697.087 872.859 698.931 881.633M721.218 836.256L698.442 881.736M721.218 836.256C721.449 836.211 721.733 836.106 722.031 835.981C722.336 835.853 722.688 835.689 723.062 835.509C723.324 835.384 723.596 835.25 723.874 835.114C724.404 834.855 724.958 834.583 725.505 834.332C726.341 833.948 727.112 833.633 727.69 833.496C727.985 833.426 728.18 833.414 728.291 833.432C728.305 833.434 728.316 833.436 728.323 833.438L741.636 871.351C741.636 871.352 741.636 871.352 741.636 871.352C741.65 871.394 741.647 871.411 741.645 871.418C741.642 871.43 741.631 871.461 741.583 871.512C741.478 871.626 741.263 871.765 740.904 871.912C740.195 872.203 739.151 872.441 737.992 872.683C737.801 872.722 737.607 872.762 737.412 872.802C736.446 873 735.447 873.205 734.598 873.447C734.085 873.592 733.607 873.756 733.21 873.949C732.822 874.137 732.456 874.378 732.23 874.707L732.225 874.715L732.22 874.722C730.911 876.784 729.674 878.263 728.59 879.559C728.312 879.891 728.043 880.212 727.787 880.527C726.532 882.067 725.549 883.486 725.143 885.503C724.739 887.504 724.915 890.036 725.832 893.8C726.75 897.567 728.425 902.616 731.063 909.67M721.218 836.256L731.063 909.67M698.931 881.633L698.442 881.736M698.931 881.633C698.931 881.633 698.931 881.633 698.931 881.633L698.442 881.736M698.931 881.633C698.984 881.885 699.038 882.137 699.091 882.388C701.269 892.715 703.258 902.144 714.482 911.895M698.442 881.736C698.496 881.993 698.55 882.249 698.604 882.504C700.785 892.841 702.803 902.411 714.154 912.272M714.482 911.895C714.482 911.894 714.482 911.894 714.482 911.894L714.154 912.272M714.482 911.895C717.228 914.276 719.935 916.017 722.375 917.109C724.823 918.204 726.964 918.63 728.592 918.434C730.191 918.243 731.276 917.463 731.757 916.106C732.256 914.701 732.143 912.581 731.063 909.67M714.482 911.895L714.154 912.272M714.154 912.272L731.063 909.67M728.342 833.444C728.342 833.444 728.341 833.444 728.34 833.443C728.341 833.444 728.342 833.444 728.342 833.444Z" fill="#CE7A63" stroke="black"/>
<path d="M613.764 876.245L638.177 823.255L654.984 830.205L641.8 879.69L613.764 876.245Z" fill="#F2B66D" stroke="black"/>
<path d="M765.992 872.921L738.847 880.688L718.14 830.68L733.593 824.336L765.992 872.921Z" fill="#F2B66D" stroke="black"/>
<path d="M689.577 417.022L687.338 434.335C687.168 434.346 686.948 434.356 686.686 434.36C686.032 434.369 685.127 434.341 684.122 434.192C682.235 433.911 680.067 433.212 678.525 431.597C681.523 428.913 684.538 424.832 686.821 421.395C687.937 419.716 688.884 418.181 689.577 417.022Z" fill="#BA4D3C" stroke="black"/>
<path d="M696.791 449.21L696.77 449.208H696.749H696.728C696.732 449.201 696.738 449.194 696.745 449.19C696.754 449.184 696.765 449.18 696.776 449.18C702.889 449.632 708.95 447.782 713.77 443.994L713.791 443.977L713.811 443.958C713.821 443.948 713.835 443.942 713.849 443.942C713.862 443.942 713.874 443.947 713.884 443.955C713.892 443.965 713.897 443.977 713.897 443.99C713.897 443.999 713.894 444.009 713.89 444.017C709.061 447.865 702.945 449.723 696.791 449.21Z" fill="#263238" stroke="black"/>
<path d="M728.5 400.443L728.479 400.431L728.458 400.422C728.367 400.382 728.286 400.324 728.219 400.252C727.049 398.28 725.431 396.61 723.496 395.38C721.547 394.141 719.332 393.381 717.033 393.164L716.969 393.158L716.906 393.168C716.823 393.182 716.738 393.177 716.656 393.154C716.575 393.132 716.5 393.091 716.435 393.037C716.371 392.982 716.32 392.914 716.284 392.837C716.249 392.761 716.23 392.678 716.23 392.593C716.23 392.509 716.249 392.425 716.284 392.349C716.32 392.272 716.371 392.204 716.435 392.15C716.5 392.095 716.575 392.055 716.656 392.032C716.738 392.009 716.823 392.005 716.906 392.018L716.927 392.021L716.949 392.023C719.451 392.21 721.872 393 724.003 394.325C726.134 395.65 727.912 397.472 729.186 399.634L729.191 399.642L729.196 399.65C729.237 399.715 729.265 399.787 729.279 399.863C729.292 399.938 729.29 400.016 729.274 400.091C729.257 400.166 729.226 400.237 729.182 400.3C729.14 400.359 729.088 400.409 729.028 400.449C728.949 400.491 728.86 400.513 728.77 400.513C728.675 400.513 728.582 400.489 728.5 400.443Z" fill="#263238" stroke="black"/>
<path d="M703.41 412.109L703.41 412.109L703.402 412.1C703.313 412.012 703.254 411.897 703.235 411.774C703.216 411.65 703.238 411.523 703.296 411.412C703.355 411.302 703.448 411.213 703.561 411.159C703.673 411.106 703.799 411.09 703.92 411.113C704.033 411.138 704.137 411.196 704.219 411.278C705.815 412.948 707.788 414.213 709.972 414.967C712.157 415.722 714.491 415.945 716.779 415.616L716.794 415.613L716.809 415.61C716.96 415.579 717.116 415.609 717.245 415.693C717.373 415.777 717.463 415.907 717.496 416.056C717.527 416.211 717.497 416.372 717.412 416.506C717.33 416.635 717.202 416.728 717.055 416.767C714.578 417.131 712.05 416.9 709.681 416.093C707.303 415.283 705.153 413.917 703.41 412.109Z" fill="#263238" stroke="black"/>
<path d="M665.735 407.167L665.745 407.169L665.755 407.171C665.867 407.193 665.972 407.244 666.059 407.318C667.641 408.993 669.602 410.262 671.778 411.021C673.96 411.782 676.294 412.005 678.582 411.672L678.597 411.67L678.611 411.667C678.767 411.635 678.928 411.665 679.062 411.751C679.194 411.835 679.289 411.967 679.326 412.118C679.355 412.267 679.325 412.421 679.242 412.547C679.161 412.672 679.035 412.761 678.89 412.796C676.413 413.169 673.883 412.944 671.511 412.141C669.133 411.336 666.982 409.973 665.24 408.166L665.24 408.166L665.237 408.163C665.125 408.049 665.062 407.895 665.062 407.735C665.062 407.576 665.125 407.423 665.236 407.309C665.3 407.244 665.379 407.197 665.467 407.172C665.554 407.147 665.646 407.145 665.735 407.167Z" fill="#263238" stroke="black"/>
<path d="M669.274 389.818L669.233 389.794L669.188 389.777C669.113 389.75 669.047 389.702 668.998 389.639L668.999 389.639L668.995 389.634C668.947 389.573 668.912 389.504 668.892 389.43C668.872 389.355 668.866 389.278 668.876 389.201C668.885 389.125 668.91 389.051 668.949 388.984L668.515 388.735L668.949 388.984C668.987 388.918 669.038 388.859 669.099 388.812L669.1 388.812L669.11 388.804C671.065 387.225 673.37 386.137 675.833 385.632C678.289 385.127 680.831 385.217 683.246 385.894C683.314 385.919 683.377 385.957 683.432 386.006C683.489 386.057 683.536 386.119 683.569 386.189C683.603 386.258 683.622 386.333 683.626 386.41C683.63 386.486 683.619 386.562 683.594 386.634C683.538 386.78 683.429 386.899 683.287 386.967C683.145 387.035 682.982 387.046 682.832 386.997L682.819 386.992L682.806 386.989C680.568 386.385 678.217 386.331 675.953 386.832C673.705 387.329 671.609 388.359 669.842 389.835C669.759 389.878 669.667 389.901 669.573 389.901C669.468 389.901 669.364 389.872 669.274 389.818Z" fill="#263238" stroke="black"/>
<path d="M787.414 755.919L787.423 756.01L787.463 756.093C787.588 756.351 787.538 756.63 787.217 756.909C786.883 757.199 786.293 757.428 785.553 757.428H638.48C637.905 757.428 637.399 757.286 637.042 757.075C636.68 756.86 636.528 756.611 636.507 756.407L636.507 756.407L635.205 743.416C635.214 743.187 635.355 742.918 635.694 742.683C636.04 742.443 636.555 742.272 637.176 742.272H784.304H784.332L784.36 742.269C784.74 742.225 785.124 742.286 785.472 742.444C785.782 742.585 786.052 742.798 786.261 743.066L787.414 755.919Z" fill="#FFB573" stroke="black"/>
<path opacity="0.3" d="M787.709 756.164L787.718 756.255L787.758 756.338C787.883 756.596 787.833 756.875 787.512 757.153C787.178 757.444 786.588 757.673 785.848 757.673H638.775C638.2 757.673 637.693 757.531 637.337 757.32C636.975 757.105 636.823 756.856 636.802 756.652L636.802 756.652L635.5 743.661C635.509 743.432 635.65 743.162 635.989 742.927C636.335 742.688 636.85 742.517 637.471 742.517H784.599H784.627L784.655 742.514C785.035 742.47 785.419 742.531 785.767 742.689C786.077 742.83 786.347 743.043 786.556 743.31L787.709 756.164Z" fill="black" stroke="black"/>
<path d="M771.759 758.484L771.759 758.484C771.76 758.491 771.768 758.561 771.62 758.662C771.474 758.762 771.23 758.845 770.924 758.845H766.982C766.661 758.845 766.385 758.762 766.197 758.647C766 758.528 765.957 758.415 765.952 758.374C765.952 758.374 765.952 758.374 765.952 758.374L764.092 741.469L764.092 741.468C764.092 741.468 764.092 741.468 764.092 741.468C764.092 741.463 764.083 741.402 764.224 741.31C764.369 741.214 764.615 741.135 764.928 741.135H768.87C769.199 741.135 769.493 741.216 769.688 741.327C769.785 741.382 769.842 741.435 769.871 741.474C769.886 741.493 769.892 741.506 769.894 741.513C769.896 741.519 769.896 741.522 769.896 741.523V741.551L769.899 741.578L771.759 758.484Z" fill="#263238" stroke="black"/>
<path d="M654.333 758.483L654.333 758.484C654.335 758.501 654.337 758.57 654.202 758.666C654.065 758.763 653.831 758.845 653.526 758.845H649.584C649.263 758.845 648.987 758.762 648.799 758.647C648.602 758.528 648.558 758.415 648.554 758.374C648.554 758.374 648.554 758.374 648.554 758.374L646.694 741.469L646.694 741.468C646.694 741.468 646.694 741.468 646.694 741.468C646.693 741.463 646.684 741.403 646.825 741.31C646.97 741.214 647.217 741.135 647.529 741.135H651.471C651.784 741.135 652.08 741.215 652.282 741.328C652.484 741.441 652.497 741.526 652.498 741.526C652.498 741.526 652.498 741.526 652.498 741.526V741.55L652.501 741.577L654.333 758.483Z" fill="#263238" stroke="black"/>
<path d="M713.046 758.483L713.046 758.484C713.048 758.5 713.052 758.569 712.914 758.664C712.775 758.761 712.533 758.845 712.211 758.845H708.269C707.965 758.845 707.687 758.763 707.492 758.646C707.286 758.522 707.243 758.409 707.239 758.374C707.239 758.374 707.239 758.374 707.239 758.374L705.407 741.469L705.407 741.469L705.407 741.468L705.407 741.468C705.405 741.455 705.399 741.396 705.531 741.308C705.669 741.216 705.913 741.135 706.242 741.135H710.184C710.497 741.135 710.793 741.215 710.995 741.328C711.197 741.441 711.21 741.526 711.211 741.526C711.211 741.526 711.211 741.526 711.211 741.526V741.55L711.214 741.577L713.046 758.483Z" fill="#263238" stroke="black"/>
<path d="M840.917 673.499C841.674 677.266 842.518 681.007 843.354 684.713C843.684 686.175 844.012 687.631 844.333 689.081L844.333 689.081L844.335 689.09L846.168 696.669L846.169 696.676L846.171 696.683L847.948 703.179L847.955 703.204L847.964 703.228C849.119 706.201 850.911 708.886 853.214 711.092C856.375 714.317 859.825 717.243 863.522 719.835L863.525 719.837C871.886 725.612 880.688 730.721 889.851 735.115C899.248 739.786 909.058 744.038 918.973 748.092C928.754 752.092 938.856 755.848 948.665 759.386L944.627 776.491C922.362 773.08 900.477 767.533 879.274 759.929L879.272 759.928C868.131 755.985 857.371 751.036 847.127 745.143C841.545 741.872 836.291 738.071 831.439 733.791L831.434 733.787C825.506 728.68 820.807 722.3 817.689 715.124C817.688 715.122 817.688 715.12 817.687 715.118L817.058 713.559L816.645 712.376L816.644 712.374L815.896 710.269L815.895 710.264L814.428 706.001L811.85 697.687C811.85 697.686 811.85 697.685 811.849 697.684C810.223 692.138 808.716 686.685 807.33 681.325L807.329 681.322C804.463 670.484 801.864 659.647 799.534 648.81L799.533 648.806C794.741 627.269 790.632 605.814 787.098 584.034L822.85 577.98L834.669 641.678L834.67 641.68C836.696 652.34 838.751 662.975 840.917 673.499ZM840.917 673.499C840.917 673.499 840.917 673.498 840.917 673.498L841.407 673.399L840.917 673.5C840.917 673.5 840.917 673.499 840.917 673.499Z" fill="#CE7A63" stroke="black"/>
<path d="M810.197 534.828L810.197 534.828C811.921 535.35 813.734 536.513 815.593 538.191C817.449 539.866 819.328 542.031 821.187 544.522C824.904 549.504 828.512 555.748 831.672 561.87C834.832 567.99 837.538 573.974 839.454 578.429C840.412 580.656 841.172 582.5 841.693 583.787C841.953 584.431 842.154 584.935 842.289 585.278C842.312 585.337 842.334 585.392 842.353 585.442L786.612 625.304C786.461 625.02 786.25 624.621 785.988 624.116C785.423 623.027 784.623 621.451 783.682 619.5C781.799 615.598 779.353 610.2 777.099 604.218C774.844 598.235 772.786 591.678 771.673 585.455C770.559 579.222 770.402 573.377 771.898 568.788L771.899 568.787C775.058 559.048 780.594 549.289 787.382 542.603C794.175 535.913 802.133 532.378 810.197 534.828Z" fill="#F6CB97" stroke="black"/>
<path d="M929.902 772.279L942.285 760.461L975.054 752.155L959.487 783.503C959.322 783.506 959.09 783.51 958.799 783.511C958.163 783.514 957.245 783.503 956.119 783.45C953.866 783.345 950.786 783.072 947.474 782.403C940.942 781.084 933.645 778.254 929.902 772.279Z" fill="#CE7A63" stroke="black"/>
<path d="M976.22 752.474L1002.71 764.431L988.142 790.199L960.535 784.061L976.22 752.474Z" fill="#CE7A63" stroke="black"/>
</svg>
