<svg width="351" height="378" viewBox="0 0 351 378" fill="none" xmlns="http://www.w3.org/2000/svg">
<g clip-path="url(#clip0_208_92)">
<path d="M230.384 77.8275C228.426 80.9388 225.572 83.0552 222.669 85.0451C214.493 90.6627 205.498 93.1183 195.683 92.4118C191.324 92.1149 187.038 91.0963 182.988 89.3944C199.33 88.6847 213.002 82.1121 224.018 69.4141C226.316 71.4332 228.957 72.9985 230.384 75.8959V77.8275Z" fill="#F2B66D"/>
<path d="M152.381 41.2284C152.662 25.1955 157.714 12.2479 167.761 1.4329C169.541 -0.482492 171.57 -0.47277 173.359 1.4329C181.452 10.1154 186.532 20.3859 188.074 32.3741C190.385 50.2738 185.352 65.7785 173.465 78.9172C171.576 81.0044 169.541 80.9623 167.62 78.8978C159.922 70.7309 154.857 60.2839 153.124 49.0001C152.646 46.1027 152.553 43.1405 152.381 41.2284Z" fill="#F2B66D"/>
<path d="M186.996 72.921C188.476 69.6541 190.118 66.4164 191.436 63.0361C194.87 54.1268 196.119 44.848 195.404 35.271C194.973 29.4758 193.753 23.7734 191.779 18.3339C191.467 17.5042 191.583 17.0796 192.36 16.7523C195.991 15.2355 199.579 13.5891 203.254 12.215C205.608 11.327 207.55 12.5391 208.106 15.0962C212.566 35.4601 207.642 52.9881 193.334 67.6804C191.648 69.4013 189.681 70.8209 187.833 72.37C187.564 72.5701 187.285 72.754 186.996 72.921Z" fill="#F2B66D"/>
<path d="M153.995 73.1808C151.429 70.8635 148.716 68.6953 146.318 66.1998C138.225 57.7734 133.485 47.5676 131.827 35.8257C130.883 28.9283 131.271 21.9046 132.97 15.1647C133.595 12.5525 135.468 11.3112 137.888 12.2122C141.459 13.5442 144.938 15.1291 148.472 16.5842C149.481 16.9958 149.649 17.5338 149.256 18.5936C146.268 26.6636 145.131 35.0576 145.578 43.6558C146.056 53.4916 148.807 63.0635 153.599 71.5636L154.301 72.8178L153.995 73.1808Z" fill="#F2B66D"/>
<path d="M125.175 38.7466C128.688 57.544 138.345 71.7782 154.122 81.7377C153.475 81.6599 152.826 81.5886 152.18 81.4978C151.533 81.4071 150.868 81.3358 150.222 81.1964C133.52 77.5795 121.631 67.7152 114.554 51.6034C113.617 49.4514 112.992 47.1439 112.312 44.8752C112.171 44.4417 112.115 43.9835 112.147 43.5273C112.179 43.0712 112.298 42.6262 112.498 42.2183C112.697 41.8104 112.973 41.4479 113.309 41.1517C113.644 40.8556 114.034 40.6318 114.454 40.4934C117.931 39.3909 121.54 38.8028 125.175 38.7466Z" fill="#F2B66D"/>
<path d="M186.996 81.7826C202.726 71.8297 212.392 57.589 215.967 38.5776C218.415 38.9017 220.863 39.2258 223.305 39.6147C224.3 39.7848 225.283 40.0219 226.249 40.3245C228.35 40.9727 229.402 42.8589 228.769 45.0206C222.996 64.6834 210.366 76.6684 191.092 81.1668C189.75 81.4812 188.364 81.5849 186.996 81.7826Z" fill="#F2B66D"/>
<path d="M117.04 69.3564C128.103 82.1095 141.769 88.6724 158.173 89.5766C156.237 90.1762 154.329 90.9249 152.359 91.3527C137.123 94.6649 123.725 90.9378 112.282 79.9024C110.134 77.8315 110.115 75.78 112.267 73.6863C113.784 72.1955 115.417 70.8181 117.04 69.3564Z" fill="#F2B66D"/>
</g>
<mask id="mask0_208_92" style="mask-type:luminance" maskUnits="userSpaceOnUse" x="30" y="152" width="113" height="102">
<path d="M30.793 152.139H142.702V253.216H30.793V152.139Z" fill="white"/>
</mask>
<g mask="url(#mask0_208_92)">
<path d="M142.545 305.144H60.5453C44.1233 305.144 30.8086 291.844 30.8086 275.443V152.459L142.545 305.144Z" fill="black"/>
</g>
<mask id="mask1_208_92" style="mask-type:luminance" maskUnits="userSpaceOnUse" x="203" y="152" width="113" height="102">
<path d="M203.367 165.639C203.367 158.183 209.411 152.139 216.867 152.139H302.369C309.825 152.139 315.869 158.183 315.869 165.639V239.716C315.869 247.172 309.825 253.216 302.369 253.216H216.867C209.411 253.216 203.367 247.172 203.367 239.716V165.639Z" fill="white"/>
</mask>
<g mask="url(#mask1_208_92)">
<path d="M219.319 283.671C212.793 292.59 219.162 305.144 230.214 305.144H285.6C302.027 305.144 315.342 291.844 315.342 275.443V193.766C315.342 180.712 298.657 175.259 290.948 185.793L219.319 283.671Z" fill="black"/>
</g>
<mask id="mask2_208_92" style="mask-type:luminance" maskUnits="userSpaceOnUse" x="16" y="45" width="190" height="209">
<path d="M16.9434 45.3228H205.906V253.214H16.9434V45.3228Z" fill="white"/>
</mask>
<g mask="url(#mask2_208_92)">
<path d="M23.488 -6.69482H23.6924C36.0377 -6.69482 47.6441 -0.807008 54.9381 9.14047C54.9748 9.19285 55.0167 9.24523 55.0534 9.30285L167.854 163.193L205.387 214.402L173.073 258.555L-21.041 -6.69482H23.488Z" fill="#F2B66D"/>
</g>
<mask id="mask3_208_92" style="mask-type:luminance" maskUnits="userSpaceOnUse" x="157" y="45" width="172" height="209">
<path d="M157.432 45.3223H328.877V253.213H157.432V45.3223Z" fill="white"/>
</mask>
<g mask="url(#mask3_208_92)">
<path d="M322.657 -6.69434H322.458C310.113 -6.69434 298.501 -0.806519 291.212 9.14095C291.17 9.19334 291.134 9.24572 291.092 9.30334L178.297 163.193L157.594 191.443L173.073 258.556L367.186 -6.69434H322.657Z" fill="#F2B66D"/>
</g>
<path d="M303.83 281.168C304.092 280.738 304.48 280.445 304.983 280.288C305.497 280.12 306.136 280.036 306.891 280.036C307.656 280.036 308.274 280.109 308.735 280.246C309.196 280.387 309.542 280.555 309.783 280.749C310.019 280.932 310.192 281.204 310.307 281.566C310.459 282.027 310.538 282.729 310.538 283.661V295.814C310.538 299.35 309.437 302.561 307.247 305.452C306.167 306.825 304.784 307.935 303.097 308.784C301.42 309.622 299.555 310.041 297.501 310.041C295.446 310.041 293.581 309.611 291.904 308.763C290.227 307.898 288.865 306.767 287.817 305.368C285.648 302.535 284.568 299.323 284.568 295.73V283.619C284.568 282.98 284.589 282.503 284.631 282.194C284.673 281.89 284.799 281.534 285.009 281.126C285.218 280.722 285.574 280.445 286.077 280.288C286.591 280.12 287.277 280.036 288.132 280.036C288.996 280.036 289.683 280.12 290.186 280.288C290.699 280.445 291.05 280.722 291.234 281.126C291.553 281.744 291.716 282.587 291.716 283.661V295.73C291.716 297.364 292.119 298.915 292.931 300.382C293.335 301.136 293.937 301.744 294.734 302.204C295.541 302.655 296.5 302.875 297.605 302.875C299.56 302.875 301.022 302.157 301.986 300.717C302.95 299.266 303.432 297.59 303.432 295.688V283.389C303.432 282.341 303.563 281.602 303.83 281.168Z" fill="black"/>
<path d="M253.156 279.721C257.123 279.721 260.565 281.162 263.489 284.038C266.408 286.903 267.87 290.46 267.87 294.703C267.87 298.951 266.471 302.571 263.678 305.556C260.896 308.547 257.463 310.04 253.387 310.04C249.32 310.04 245.852 308.568 242.991 305.619C240.14 302.675 238.715 299.16 238.715 295.08C238.715 292.859 239.113 290.779 239.91 288.836C240.717 286.898 241.796 285.269 243.137 283.954C244.479 282.644 246.014 281.607 247.749 280.853C249.493 280.098 251.296 279.721 253.156 279.721ZM245.841 294.891C245.841 297.269 246.606 299.202 248.147 300.695C249.682 302.178 251.401 302.916 253.303 302.916C255.215 302.916 256.934 302.199 258.459 300.758C259.994 299.307 260.765 297.364 260.765 294.933C260.765 292.492 259.989 290.533 258.438 289.066C256.897 287.589 255.173 286.845 253.261 286.845C251.359 286.845 249.645 287.594 248.126 289.087C246.601 290.57 245.841 292.503 245.841 294.891Z" fill="black"/>
<path d="M221.078 280.646C222.388 281.558 223.048 282.443 223.048 283.307C223.048 283.81 222.739 284.523 222.126 285.445L213.428 298.415V306.104C213.428 306.722 213.407 307.183 213.365 307.487C213.323 307.796 213.197 308.153 212.988 308.556C212.778 308.964 212.411 309.247 211.898 309.415C211.395 309.567 210.708 309.645 209.844 309.645C208.99 309.645 208.303 309.567 207.79 309.415C207.287 309.247 206.92 308.954 206.7 308.535C206.49 308.116 206.365 307.754 206.323 307.445C206.281 307.142 206.26 306.665 206.26 306.021V298.415L197.582 285.445C196.964 284.523 196.66 283.81 196.66 283.307C196.66 282.443 197.247 281.621 198.421 280.835C199.605 280.039 200.454 279.641 200.957 279.641C201.47 279.641 201.879 279.756 202.173 279.976C202.618 280.269 203.1 280.814 203.619 281.61L209.844 291.584L216.09 281.61C216.593 280.814 217.033 280.29 217.41 280.039C217.788 279.777 218.217 279.641 218.71 279.641C219.213 279.641 219.999 279.976 221.078 280.646Z" fill="black"/>
<path d="M140.783 302.438H153.17C153.799 302.438 154.265 302.458 154.575 302.5C154.879 302.542 155.235 302.668 155.644 302.878C156.356 303.255 156.713 304.302 156.713 306.02C156.713 307.896 156.215 308.991 155.224 309.31C154.774 309.478 154.082 309.562 153.149 309.562H137.22C135.334 309.562 134.228 309.053 133.908 308.032C133.751 307.602 133.678 306.916 133.678 305.979V283.622C133.678 282.254 133.929 281.327 134.432 280.835C134.946 280.332 135.91 280.081 137.325 280.081H153.17C153.799 280.081 154.265 280.102 154.575 280.143C154.879 280.185 155.235 280.311 155.644 280.521C156.356 280.898 156.713 281.945 156.713 283.664C156.713 285.539 156.215 286.639 155.224 286.974C154.774 287.131 154.082 287.205 153.149 287.205H140.783V291.27H148.748C149.377 291.27 149.843 291.29 150.152 291.332C150.456 291.374 150.807 291.5 151.2 291.71C151.923 292.087 152.29 293.134 152.29 294.852C152.29 296.728 151.776 297.823 150.76 298.142C150.309 298.31 149.618 298.394 148.685 298.394H140.783V302.438Z" fill="black"/>
<path d="M106.522 294.769C110.63 298.708 113.544 301.673 115.262 303.653C116.143 304.649 116.583 305.487 116.583 306.168C116.583 306.854 116.043 307.655 114.969 308.577C113.905 309.499 113.03 309.96 112.349 309.96C111.662 309.96 110.84 309.405 109.876 308.284L101.01 298.185V306.021C101.01 306.665 100.989 307.131 100.947 307.425C100.915 307.718 100.79 308.069 100.57 308.472C100.192 309.201 99.1495 309.562 97.4465 309.562C95.5601 309.562 94.4545 309.054 94.1349 308.032C93.9777 307.603 93.9043 306.917 93.9043 305.979V283.622C93.9043 283.009 93.9253 282.548 93.9672 282.239C94.0091 281.935 94.1349 281.579 94.3445 281.171C94.7217 280.448 95.7697 280.081 97.4884 280.081C99.3591 280.081 100.47 280.579 100.821 281.569C100.947 282.03 101.01 282.732 101.01 283.664V291.354C104.657 287.247 107.612 283.884 109.876 281.254C110.808 280.154 111.626 279.599 112.328 279.599C113.025 279.599 113.905 280.071 114.969 281.003C116.043 281.925 116.583 282.732 116.583 283.413C116.583 284.099 116.185 284.911 115.388 285.843C113.821 287.635 111.406 290.097 108.136 293.24L106.522 294.769Z" fill="black"/>
<path d="M31.3348 281.209C31.5444 281.618 31.6702 281.979 31.7121 282.299C31.754 282.624 31.775 283.09 31.775 283.703V306.018C31.775 307.877 31.2615 308.967 30.2449 309.286C29.7262 309.443 29.0764 309.517 28.2957 309.517C27.5254 309.517 26.9123 309.454 26.4512 309.328C26.0006 309.192 25.6547 309.03 25.4032 308.846C25.1622 308.652 24.984 308.38 24.8583 308.029C24.7168 307.568 24.6487 306.871 24.6487 305.934V292.461C23.978 293.299 22.9981 294.63 21.7143 296.442C20.4253 298.244 19.6079 299.376 19.262 299.836C18.9109 300.287 18.6647 300.601 18.5284 300.779C18.4027 300.947 18.0726 301.188 17.5433 301.492C17.0246 301.801 16.4639 301.953 15.8665 301.953C15.2639 301.953 14.7138 301.817 14.2107 301.534C13.7182 301.256 13.3618 300.984 13.1418 300.717L12.8274 300.276C12.2929 299.606 11.2344 298.181 9.64149 296.002C8.05903 293.812 7.21016 292.629 7.0844 292.461V306.018C7.0844 306.636 7.06344 307.097 7.02152 307.401C6.9796 307.71 6.84336 308.05 6.62328 308.427C6.23029 309.155 5.18754 309.517 3.50028 309.517C1.86542 309.517 0.84363 309.155 0.440155 308.427C0.230557 308.05 0.104799 307.704 0.0628793 307.38C0.0209598 307.06 0 306.578 0 305.934V283.619C0 283.006 0.0209598 282.545 0.0628793 282.236C0.104799 281.932 0.230557 281.576 0.440155 281.167C0.84363 280.471 1.89162 280.12 3.58412 280.12C4.29675 280.12 4.90982 280.214 5.42858 280.392C5.95781 280.56 6.30889 280.743 6.47657 280.937L6.70712 281.167L15.8456 293.152C20.3991 287.118 23.4383 283.137 24.9631 281.209C25.4242 280.486 26.5036 280.12 28.2118 280.12C29.9148 280.12 30.9576 280.486 31.3348 281.209Z" fill="black"/>
<path d="M248.491 328.091C250.713 329.641 251.824 331.139 251.824 332.575C251.824 333.444 251.3 334.644 250.252 336.179L235.58 358.137V371.107C235.58 372.155 235.543 372.941 235.475 373.454C235.402 373.973 235.187 374.575 234.825 375.256C234.458 375.942 233.845 376.419 232.981 376.681C232.127 376.948 230.974 377.079 229.522 377.079C228.081 377.079 226.929 376.948 226.064 376.681C225.194 376.419 224.581 375.937 224.22 375.235C223.853 374.523 223.638 373.91 223.57 373.391C223.512 372.862 223.486 372.061 223.486 370.982V358.137L208.793 336.179C207.756 334.644 207.242 333.444 207.242 332.575C207.242 331.139 208.233 329.746 210.218 328.405C212.215 327.064 213.64 326.394 214.494 326.394C215.359 326.394 216.045 326.577 216.548 326.938C217.313 327.441 218.131 328.374 219.001 329.725L229.522 346.571L240.065 329.725C240.93 328.374 241.679 327.478 242.308 327.043C242.937 326.614 243.67 326.394 244.509 326.394C245.347 326.394 246.673 326.959 248.491 328.091Z" fill="black"/>
<path d="M66.0611 282.175L76.9392 304.616C77.3846 305.528 77.6099 306.209 77.6099 306.67C77.6099 307.633 76.8344 308.508 75.2834 309.289C74.3716 309.734 73.6537 309.959 73.1245 309.959C72.6058 309.959 72.1813 309.839 71.846 309.603C71.5106 309.367 71.2643 309.116 71.1124 308.849C70.9709 308.571 70.7665 308.168 70.5045 307.633L68.4086 303.296H57.258L55.162 307.633C54.8948 308.168 54.6852 308.555 54.5332 308.807C54.3917 309.048 54.1559 309.289 53.8206 309.54C53.4852 309.792 53.0503 309.917 52.5211 309.917C52.0023 309.917 51.2897 309.692 50.3832 309.247C48.8322 308.492 48.0566 307.633 48.0566 306.67C48.0566 306.209 48.2767 305.528 48.7274 304.616L59.6055 282.133C59.8989 281.521 60.3443 281.023 60.9469 280.646C61.5442 280.269 62.1835 280.08 62.8542 280.08C64.3057 280.08 65.3746 280.782 66.0611 282.175ZM62.8123 291.835L60.1504 297.345H65.5161L62.8123 291.835Z" fill="black"/>
<path d="M350.389 304.575C350.792 305.539 350.996 306.24 350.996 306.67C350.996 307.691 350.163 308.551 348.502 309.247C347.648 309.624 346.956 309.813 346.427 309.813C345.908 309.813 345.484 309.687 345.149 309.436C344.813 309.174 344.562 308.907 344.394 308.64C344.127 308.126 343.084 305.701 341.271 301.369L340.014 301.432H334.941V305.979C334.941 306.597 334.92 307.058 334.878 307.361C334.847 307.671 334.721 308.027 334.501 308.43C334.124 309.158 333.081 309.52 331.378 309.52C329.492 309.52 328.386 309.027 328.066 308.032C327.909 307.571 327.836 306.874 327.836 305.937V283.622C327.836 283.009 327.857 282.548 327.899 282.239C327.941 281.935 328.066 281.579 328.276 281.17C328.653 280.447 329.701 280.081 331.42 280.081H340.097C342.455 280.081 344.75 280.94 346.972 282.658C348.046 283.496 348.932 284.627 349.634 286.052C350.331 287.467 350.682 289.043 350.682 290.788C350.682 293.821 349.676 296.314 347.664 298.268C348.251 299.682 349.157 301.783 350.389 304.575ZM334.941 294.329H340.097C340.878 294.329 341.654 294.035 342.424 293.449C343.205 292.851 343.598 291.961 343.598 290.788C343.598 289.604 343.205 288.708 342.424 288.106C341.654 287.508 340.852 287.205 340.014 287.205H334.941V294.329Z" fill="black"/>
<path d="M181.087 330.687L199.427 368.591C200.192 370.131 200.58 371.289 200.58 372.069C200.58 373.693 199.265 375.16 196.639 376.47C195.099 377.234 193.883 377.622 192.992 377.622C192.112 377.622 191.384 377.418 190.813 377.014C190.252 376.611 189.849 376.187 189.597 375.736C189.356 375.275 189.01 374.594 188.549 373.683L185.028 366.349H166.185L162.664 373.683C162.203 374.594 161.846 375.254 161.595 375.673C161.354 376.082 160.95 376.501 160.379 376.931C159.803 377.35 159.08 377.559 158.199 377.559C157.319 377.559 156.109 377.171 154.573 376.407C151.943 375.139 150.633 373.693 150.633 372.069C150.633 371.289 151.015 370.131 151.786 368.591L170.125 330.603C170.628 329.571 171.388 328.738 172.41 328.11C173.427 327.471 174.506 327.146 175.638 327.146C178.08 327.146 179.898 328.33 181.087 330.687ZM175.575 346.989L171.09 356.292H180.123L175.575 346.989Z" fill="black"/>
<path d="M105.902 327.084L118.478 327.147C125.059 327.147 130.833 329.515 135.811 334.25C140.8 338.985 143.294 344.81 143.294 351.725C143.294 358.629 140.852 364.548 135.979 369.493C131.116 374.427 125.216 376.889 118.289 376.889H105.839C103.072 376.889 101.353 376.324 100.683 375.192C100.138 374.244 99.8652 372.793 99.8652 370.834V333.056C99.8652 331.966 99.8914 331.18 99.9491 330.688C100.017 330.185 100.232 329.593 100.599 328.907C101.238 327.692 103.009 327.084 105.902 327.084ZM118.478 364.862C121.747 364.862 124.692 363.658 127.323 361.238C129.948 358.807 131.263 355.758 131.263 352.081C131.263 348.409 129.984 345.345 127.427 342.883C124.87 340.41 121.863 339.174 118.415 339.174H111.896V364.862H118.478Z" fill="black"/>
<defs>
<clipPath id="clip0_208_92">
<rect width="119.722" height="92.5288" fill="white" transform="translate(110.664)"/>
</clipPath>
</defs>
</svg>
